<?xml version="1.0" standalone="no"?>
<!DOCTYPE svg PUBLIC "-//W3C//DTD SVG 20010904//EN"
 "http://www.w3.org/TR/2001/REC-SVG-20010904/DTD/svg10.dtd">
<svg version="1.0" xmlns="http://www.w3.org/2000/svg"
 width="225.000000pt" height="225.000000pt" viewBox="0 0 225.000000 225.000000"
 preserveAspectRatio="xMidYMid meet">

<g transform="translate(0.000000,225.000000) scale(0.100000,-0.100000)"
fill="#000000" stroke="none">
<path d="M661 1743 c-44 -54 -71 -116 -71 -165 1 -46 10 -64 50 -91 66 -46
170 12 170 95 0 44 -86 198 -110 198 -5 0 -22 -17 -39 -37z m56 -30 c29 -37
54 -95 55 -128 2 -62 -56 -99 -111 -70 -34 17 -45 44 -37 89 6 33 60 126 72
126 4 0 13 -8 21 -17z"/>
<path d="M1517 1746 c-89 -116 -98 -211 -25 -256 55 -33 115 -22 155 30 19 23
15 95 -7 143 -21 45 -76 117 -90 117 -4 0 -19 -15 -33 -34z m73 -63 c52 -81
52 -141 -1 -168 -76 -40 -141 44 -98 128 20 39 54 87 62 87 4 0 21 -21 37 -47z"/>
<path d="M884 1528 c-38 -46 -74 -127 -74 -169 0 -71 70 -118 145 -98 66 19
94 92 62 167 -19 45 -80 132 -94 132 -6 0 -24 -15 -39 -32z m112 -145 c12 -62
-44 -108 -105 -87 -62 22 -62 98 0 184 l31 43 34 -53 c19 -30 37 -69 40 -87z"/>
<path d="M1293 1531 c-96 -121 -95 -239 2 -271 69 -23 133 17 142 88 6 46 -25
125 -71 180 -34 39 -44 39 -73 3z m82 -75 c13 -23 27 -58 30 -78 6 -31 3 -41
-19 -62 -56 -57 -145 -14 -132 63 3 18 20 58 37 87 37 60 43 59 84 -10z"/>
<path d="M1103 1327 c-36 -39 -71 -101 -83 -144 -20 -79 27 -143 105 -143 78
0 125 64 104 143 -11 45 -57 123 -87 151 -17 15 -20 14 -39 -7z m67 -90 c39
-68 40 -118 4 -146 -15 -12 -37 -21 -49 -21 -39 0 -75 37 -75 76 0 50 61 161
81 148 5 -3 23 -29 39 -57z"/>
<path d="M582 887 l-113 -113 3 -149 3 -150 650 0 650 0 3 150 3 149 -113 113
-113 113 -430 0 -430 0 -113 -113z m1044 -7 l91 -90 -592 0 -592 0 91 90 91
90 409 0 410 0 92 -90z m122 -172 l-3 -43 -95 -18 c-93 -18 -97 -18 -206 2
-134 25 -178 26 -264 5 -83 -21 -210 -20 -275 1 -82 26 -237 30 -323 8 -40
-11 -74 -17 -77 -15 -3 3 -5 27 -5 54 l0 48 626 0 625 0 -3 -42z m-908 -73
c171 -38 209 -40 331 -16 121 23 127 23 312 -11 66 -12 102 -9 235 18 l33 7
-3 -64 -3 -64 -620 0 -620 0 -3 48 c-3 46 -2 48 32 62 81 34 207 42 306 20z"/>
<path d="M730 927 c-27 -14 -35 -45 -10 -38 8 3 34 6 58 9 45 4 53 15 23 32
-25 13 -40 13 -71 -3z"/>
<path d="M1232 929 c-41 -16 -20 -33 43 -33 64 0 84 17 40 34 -32 12 -52 12
-83 -1z"/>
<path d="M992 914 c-24 -16 -30 -54 -9 -54 7 0 18 9 25 21 11 17 19 20 53 14
31 -5 39 -4 39 8 0 28 -73 36 -108 11z"/>
<path d="M1435 920 c-9 -14 3 -30 23 -30 10 0 28 -7 41 -16 38 -27 48 -1 11
30 -32 27 -64 34 -75 16z"/>
<path d="M837 863 c-16 -16 -7 -35 15 -30 11 3 34 -1 49 -8 37 -20 51 1 19 27
-22 18 -70 24 -83 11z"/>
<path d="M1334 860 c-29 -11 -39 -29 -25 -43 8 -8 14 -8 23 1 7 7 27 12 45 12
22 0 33 5 33 14 0 24 -37 32 -76 16z"/>
</g>
</svg>
